{"title":"Olga Black and Maddy - Jealousy 2","uid":11207559,"size":350114428,"categoryP":"porn","categoryS":"movie_clips","magnet":"?xt=urn:btih:b05b195576a65cd6be92a6092ec2adb979a77427&amp;dn=Olga+Black+and+Maddy+-+Jealousy+2&amp;tr=udp%3A%2F%2Ftracker.openbittorrent.com%3A80&amp;tr=udp%3A%2F%2Fopen.demonii.com%3A1337&amp;tr=udp%3A%2F%2Ftracker.coppersurfer.tk%3A6969&amp;tr=udp%3A%2F%2Fexodus.desync.com%3A6969","seeders":0,"leechers":2,"uploader":"athklym","files":-1,"time":1413240759,"description":" &lt;a href=&quot;http://bayimg.com/HaBekaAGE&quot; rel=&quot;nofollow&quot; target=&quot;_NEW&quot;&gt;http://bayimg.com/HaBekaAGE&lt;/a&gt;\nOlga_Black_and_Maddy_Jealousy_2.avi\nFormat                                   : AVI\nFormat/Info                              : Audio Video Interleave\nFile size                                : 334 MiB\nDuration                                 : 24mn 31s\nOverall bit rate mode                    : Variable\nOverall bit rate                         : 1 904 Kbps\nWriting application                      : VirtualDubMod 1.5.10.2 (build 2540/release)\nWriting library                          : VirtualDub build 32817/release\n\nVideo\nID                                       : 0\nFormat                                   : MPEG-4 Visual\nFormat profile                           : Advanced Simple@L5\nFormat settings, BVOP                    : 2\nFormat settings, QPel                    : No\nFormat settings, GMC                     : No warppoints\nFormat settings, Matrix                  : Default (H.263)\nCodec ID                                 : XVID\nCodec ID/Hint                            : XviD\nDuration                                 : 24mn 31s\nBit rate                                 : 1 759 Kbps\nWidth                                    : 576 pixels\nHeight                                   : 320 pixels\nDisplay aspect ratio                     : 16:9\nFrame rate                               : 29.970 fps\nColor space                              : YUV\nChroma subsampling                       : 4:2:0\nBit depth                                : 8 bits\nScan type                                : Progressive\nCompression mode                         : Lossy\nBits/(Pixel*Frame)                       : 0.318\nStream size                              : 308 MiB (92%)\nWriting library                          : XviD 1.2.1 (UTC 2008-12-04)\n\nAudio\nID                                       : 1\nFormat                                   : MPEG Audio\nFormat version                           : Version 1\nFormat profile                           : Layer 3\nMode                                     : Joint stereo\nMode extension                           : MS Stereo\nCodec ID                                 : 55\nCodec ID/Hint                            : MP3\nDuration                                 : 24mn 31s\nBit rate mode                            : Variable\nBit rate                                 : 132 Kbps\nChannel(s)                               : 2 channels\nSampling rate                            : 48.0 KHz\nCompression mode                         : Lossy\nStream size                              : 23.1 MiB (7%)\nAlignment                                : Aligned on interleaves\nInterleave, duration                     : 24 ms (0.72 video frame)\nInterleave, preload duration             : 496 ms","torrent":{"xt":"urn:btih:b05b195576a65cd6be92a6092ec2adb979a77427","amp;dn":"Olga+Black+and+Maddy+-+Jealousy+2","amp;tr":["udp%3A%2F%2Ftracker.openbittorrent.com%3A80","udp%3A%2F%2Fopen.demonii.com%3A1337","udp%3A%2F%2Ftracker.coppersurfer.tk%3A6969","udp%3A%2F%2Fexodus.desync.com%3A6969"],"infoHash":"b05b195576a65cd6be92a6092ec2adb979a77427","infoHashBuffer":{"type":"Buffer","data":[176,91,25,85,118,166,92,214,190,146,166,9,46,194,173,185,121,167,116,39]},"announce":[],"urlList":[]}}